<?xml version="1.0" encoding="UTF-8" standalone="no"?>
<!-- Created with Inkscape (http://www.inkscape.org/) -->

<svg
   xmlns:dc="http://purl.org/dc/elements/1.1/"
   xmlns:cc="http://creativecommons.org/ns#"
   xmlns:rdf="http://www.w3.org/1999/02/22-rdf-syntax-ns#"
   xmlns:svg="http://www.w3.org/2000/svg"
   xmlns="http://www.w3.org/2000/svg"
   xmlns:sodipodi="http://sodipodi.sourceforge.net/DTD/sodipodi-0.dtd"
   xmlns:inkscape="http://www.inkscape.org/namespaces/inkscape"
   version="1.1"
   id="svg6835"
   xml:space="preserve"
   width="960"
   height="480"
   viewBox="0 0 960 480"
   sodipodi:docname="Perfil_Te_demt_awsom_2208_1105_2.svg"
   inkscape:version="0.92.3 (2405546, 2018-03-11)"><metadata
     id="metadata6841"><rdf:RDF><cc:Work
         rdf:about=""><dc:format>image/svg+xml</dc:format><dc:type
           rdf:resource="http://purl.org/dc/dcmitype/StillImage" /><dc:title></dc:title></cc:Work></rdf:RDF></metadata><defs
     id="defs6839" /><sodipodi:namedview
     pagecolor="#ffffff"
     bordercolor="#666666"
     borderopacity="1"
     objecttolerance="10"
     gridtolerance="10"
     guidetolerance="10"
     inkscape:pageopacity="0"
     inkscape:pageshadow="2"
     inkscape:window-width="1920"
     inkscape:window-height="1052"
     id="namedview6837"
     showgrid="false"
     inkscape:zoom="0.96343299"
     inkscape:cx="529.56122"
     inkscape:cy="264.81008"
     inkscape:window-x="0"
     inkscape:window-y="0"
     inkscape:window-maximized="1"
     inkscape:current-layer="g6845" /><g
     id="g6843"
     inkscape:groupmode="layer"
     inkscape:label="ink_ext_XXXXXX"
     transform="matrix(1.3333333,0,0,-1.3333333,0,480)"><g
       id="g6845"
       transform="scale(0.1)"><path
   d="M 1573.23,997.797 H 6728.04"
   style="fill:none;stroke:#000000;stroke-width:2.83465004;stroke-linecap:butt;stroke-linejoin:miter;stroke-miterlimit:2.5;stroke-dasharray:none;stroke-opacity:1"
   id="path6853"
   inkscape:connector-curvature="0" /><path
   d="m 2702.55,997.797 v 41.953"
   style="fill:none;stroke:#000000;stroke-width:2.83465004;stroke-linecap:butt;stroke-linejoin:miter;stroke-miterlimit:2.5;stroke-dasharray:none;stroke-opacity:1"
   id="path6855"
   inkscape:connector-curvature="0" /><g
   id="g6857"
   transform="scale(10)"><text
   transform="matrix(1,0,0,-1,248.58,62.3621)"
   style="font-variant:normal;font-weight:normal;font-size:30px;font-family:Helvetica;-inkscape-font-specification:Helvetica;writing-mode:lr-tb;fill:#000000;fill-opacity:1;fill-rule:nonzero;stroke:none"
   id="text6861"><tspan
     x="0 9.9899998 26.67"
     y="0"
     sodipodi:role="line"
     id="tspan6859">-50</tspan></text>

</g><path
   d="m 4150.78,997.797 v 41.953"
   style="fill:none;stroke:#000000;stroke-width:2.83465004;stroke-linecap:butt;stroke-linejoin:miter;stroke-miterlimit:2.5;stroke-dasharray:none;stroke-opacity:1"
   id="path6863"
   inkscape:connector-curvature="0" /><g
   id="g6865"
   transform="scale(10)"><text
   transform="matrix(1,0,0,-1,406.738,62.3621)"
   style="font-variant:normal;font-weight:normal;font-size:30px;font-family:Helvetica;-inkscape-font-specification:Helvetica;writing-mode:lr-tb;fill:#000000;fill-opacity:1;fill-rule:nonzero;stroke:none"
   id="text6869"><tspan
     x="0"
     y="0"
     id="tspan6867">0</tspan></text>

</g><path
   d="m 5598.72,997.797 v 41.953"
   style="fill:none;stroke:#000000;stroke-width:2.83465004;stroke-linecap:butt;stroke-linejoin:miter;stroke-miterlimit:2.5;stroke-dasharray:none;stroke-opacity:1"
   id="path6871"
   inkscape:connector-curvature="0" /><g
   id="g6873"
   transform="scale(10)"><text
   transform="matrix(1,0,0,-1,543.192,62.3621)"
   style="font-variant:normal;font-weight:normal;font-size:30px;font-family:Helvetica;-inkscape-font-specification:Helvetica;writing-mode:lr-tb;fill:#000000;fill-opacity:1;fill-rule:nonzero;stroke:none"
   id="text6877"><tspan
     x="0 16.68"
     y="0"
     sodipodi:role="line"
     id="tspan6875">50</tspan></text>

</g><path
   d="m 1834.02,997.797 v 20.973"
   style="fill:none;stroke:#000000;stroke-width:2.83465004;stroke-linecap:butt;stroke-linejoin:miter;stroke-miterlimit:2.5;stroke-dasharray:none;stroke-opacity:1"
   id="path6879"
   inkscape:connector-curvature="0" /><path
   d="m 2123.44,997.797 v 20.973"
   style="fill:none;stroke:#000000;stroke-width:2.83465004;stroke-linecap:butt;stroke-linejoin:miter;stroke-miterlimit:2.5;stroke-dasharray:none;stroke-opacity:1"
   id="path6881"
   inkscape:connector-curvature="0" /><path
   d="m 2413.14,997.797 v 20.973"
   style="fill:none;stroke:#000000;stroke-width:2.83465004;stroke-linecap:butt;stroke-linejoin:miter;stroke-miterlimit:2.5;stroke-dasharray:none;stroke-opacity:1"
   id="path6883"
   inkscape:connector-curvature="0" /><path
   d="m 2992.26,997.797 v 20.973"
   style="fill:none;stroke:#000000;stroke-width:2.83465004;stroke-linecap:butt;stroke-linejoin:miter;stroke-miterlimit:2.5;stroke-dasharray:none;stroke-opacity:1"
   id="path6885"
   inkscape:connector-curvature="0" /><path
   d="m 3281.96,997.797 v 20.973"
   style="fill:none;stroke:#000000;stroke-width:2.83465004;stroke-linecap:butt;stroke-linejoin:miter;stroke-miterlimit:2.5;stroke-dasharray:none;stroke-opacity:1"
   id="path6887"
   inkscape:connector-curvature="0" /><path
   d="m 3571.38,997.797 v 20.973"
   style="fill:none;stroke:#000000;stroke-width:2.83465004;stroke-linecap:butt;stroke-linejoin:miter;stroke-miterlimit:2.5;stroke-dasharray:none;stroke-opacity:1"
   id="path6889"
   inkscape:connector-curvature="0" /><path
   d="m 3861.08,997.797 v 20.973"
   style="fill:none;stroke:#000000;stroke-width:2.83465004;stroke-linecap:butt;stroke-linejoin:miter;stroke-miterlimit:2.5;stroke-dasharray:none;stroke-opacity:1"
   id="path6891"
   inkscape:connector-curvature="0" /><path
   d="m 4440.2,997.797 v 20.973"
   style="fill:none;stroke:#000000;stroke-width:2.83465004;stroke-linecap:butt;stroke-linejoin:miter;stroke-miterlimit:2.5;stroke-dasharray:none;stroke-opacity:1"
   id="path6893"
   inkscape:connector-curvature="0" /><path
   d="m 4729.9,997.797 v 20.973"
   style="fill:none;stroke:#000000;stroke-width:2.83465004;stroke-linecap:butt;stroke-linejoin:miter;stroke-miterlimit:2.5;stroke-dasharray:none;stroke-opacity:1"
   id="path6895"
   inkscape:connector-curvature="0" /><path
   d="m 5019.6,997.797 v 20.973"
   style="fill:none;stroke:#000000;stroke-width:2.83465004;stroke-linecap:butt;stroke-linejoin:miter;stroke-miterlimit:2.5;stroke-dasharray:none;stroke-opacity:1"
   id="path6897"
   inkscape:connector-curvature="0" /><path
   d="m 5309.02,997.797 v 20.973"
   style="fill:none;stroke:#000000;stroke-width:2.83465004;stroke-linecap:butt;stroke-linejoin:miter;stroke-miterlimit:2.5;stroke-dasharray:none;stroke-opacity:1"
   id="path6899"
   inkscape:connector-curvature="0" /><path
   d="m 5888.14,997.797 v 20.973"
   style="fill:none;stroke:#000000;stroke-width:2.83465004;stroke-linecap:butt;stroke-linejoin:miter;stroke-miterlimit:2.5;stroke-dasharray:none;stroke-opacity:1"
   id="path6901"
   inkscape:connector-curvature="0" /><path
   d="m 6177.84,997.797 v 20.973"
   style="fill:none;stroke:#000000;stroke-width:2.83465004;stroke-linecap:butt;stroke-linejoin:miter;stroke-miterlimit:2.5;stroke-dasharray:none;stroke-opacity:1"
   id="path6903"
   inkscape:connector-curvature="0" /><path
   d="m 6467.54,997.797 v 20.973"
   style="fill:none;stroke:#000000;stroke-width:2.83465004;stroke-linecap:butt;stroke-linejoin:miter;stroke-miterlimit:2.5;stroke-dasharray:none;stroke-opacity:1"
   id="path6905"
   inkscape:connector-curvature="0" /><g
   id="g6907"
   transform="scale(10)"><text
   transform="matrix(1,0,0,-1,324.178,29.934)"
   style="font-variant:normal;font-weight:normal;font-size:30px;font-family:Helvetica;-inkscape-font-specification:Helvetica;writing-mode:lr-tb;fill:#000000;fill-opacity:1;fill-rule:nonzero;stroke:none"
   id="text6911"><tspan
     x="0 16.68 33.360001 41.700001 48.360001 56.700001 73.379997 90.059998 106.74 115.08 123.42 140.10001 156.78 173.46001"
     y="0"
     sodipodi:role="line"
     id="tspan6909">Latitude [deg]</tspan></text>

</g><path
   d="M 1573.23,3101.11 H 6728.04"
   style="fill:none;stroke:#000000;stroke-width:2.83465004;stroke-linecap:butt;stroke-linejoin:miter;stroke-miterlimit:2.5;stroke-dasharray:none;stroke-opacity:1"
   id="path6913"
   inkscape:connector-curvature="0" /><path
   d="m 2702.55,3101.11 v -41.95"
   style="fill:none;stroke:#000000;stroke-width:2.83465004;stroke-linecap:butt;stroke-linejoin:miter;stroke-miterlimit:2.5;stroke-dasharray:none;stroke-opacity:1"
   id="path6915"
   inkscape:connector-curvature="0" /><path
   d="m 4150.78,3101.11 v -41.95"
   style="fill:none;stroke:#000000;stroke-width:2.83465004;stroke-linecap:butt;stroke-linejoin:miter;stroke-miterlimit:2.5;stroke-dasharray:none;stroke-opacity:1"
   id="path6917"
   inkscape:connector-curvature="0" /><path
   d="m 5598.72,3101.11 v -41.95"
   style="fill:none;stroke:#000000;stroke-width:2.83465004;stroke-linecap:butt;stroke-linejoin:miter;stroke-miterlimit:2.5;stroke-dasharray:none;stroke-opacity:1"
   id="path6919"
   inkscape:connector-curvature="0" /><path
   d="m 1834.02,3101.11 v -20.98"
   style="fill:none;stroke:#000000;stroke-width:2.83465004;stroke-linecap:butt;stroke-linejoin:miter;stroke-miterlimit:2.5;stroke-dasharray:none;stroke-opacity:1"
   id="path6921"
   inkscape:connector-curvature="0" /><path
   d="m 2123.44,3101.11 v -20.98"
   style="fill:none;stroke:#000000;stroke-width:2.83465004;stroke-linecap:butt;stroke-linejoin:miter;stroke-miterlimit:2.5;stroke-dasharray:none;stroke-opacity:1"
   id="path6923"
   inkscape:connector-curvature="0" /><path
   d="m 2413.14,3101.11 v -20.98"
   style="fill:none;stroke:#000000;stroke-width:2.83465004;stroke-linecap:butt;stroke-linejoin:miter;stroke-miterlimit:2.5;stroke-dasharray:none;stroke-opacity:1"
   id="path6925"
   inkscape:connector-curvature="0" /><path
   d="m 2992.26,3101.11 v -20.98"
   style="fill:none;stroke:#000000;stroke-width:2.83465004;stroke-linecap:butt;stroke-linejoin:miter;stroke-miterlimit:2.5;stroke-dasharray:none;stroke-opacity:1"
   id="path6927"
   inkscape:connector-curvature="0" /><path
   d="m 3281.96,3101.11 v -20.98"
   style="fill:none;stroke:#000000;stroke-width:2.83465004;stroke-linecap:butt;stroke-linejoin:miter;stroke-miterlimit:2.5;stroke-dasharray:none;stroke-opacity:1"
   id="path6929"
   inkscape:connector-curvature="0" /><path
   d="m 3571.38,3101.11 v -20.98"
   style="fill:none;stroke:#000000;stroke-width:2.83465004;stroke-linecap:butt;stroke-linejoin:miter;stroke-miterlimit:2.5;stroke-dasharray:none;stroke-opacity:1"
   id="path6931"
   inkscape:connector-curvature="0" /><path
   d="m 3861.08,3101.11 v -20.98"
   style="fill:none;stroke:#000000;stroke-width:2.83465004;stroke-linecap:butt;stroke-linejoin:miter;stroke-miterlimit:2.5;stroke-dasharray:none;stroke-opacity:1"
   id="path6933"
   inkscape:connector-curvature="0" /><path
   d="m 4440.2,3101.11 v -20.98"
   style="fill:none;stroke:#000000;stroke-width:2.83465004;stroke-linecap:butt;stroke-linejoin:miter;stroke-miterlimit:2.5;stroke-dasharray:none;stroke-opacity:1"
   id="path6935"
   inkscape:connector-curvature="0" /><path
   d="m 4729.9,3101.11 v -20.98"
   style="fill:none;stroke:#000000;stroke-width:2.83465004;stroke-linecap:butt;stroke-linejoin:miter;stroke-miterlimit:2.5;stroke-dasharray:none;stroke-opacity:1"
   id="path6937"
   inkscape:connector-curvature="0" /><path
   d="m 5019.6,3101.11 v -20.98"
   style="fill:none;stroke:#000000;stroke-width:2.83465004;stroke-linecap:butt;stroke-linejoin:miter;stroke-miterlimit:2.5;stroke-dasharray:none;stroke-opacity:1"
   id="path6939"
   inkscape:connector-curvature="0" /><path
   d="m 5309.02,3101.11 v -20.98"
   style="fill:none;stroke:#000000;stroke-width:2.83465004;stroke-linecap:butt;stroke-linejoin:miter;stroke-miterlimit:2.5;stroke-dasharray:none;stroke-opacity:1"
   id="path6941"
   inkscape:connector-curvature="0" /><path
   d="m 5888.14,3101.11 v -20.98"
   style="fill:none;stroke:#000000;stroke-width:2.83465004;stroke-linecap:butt;stroke-linejoin:miter;stroke-miterlimit:2.5;stroke-dasharray:none;stroke-opacity:1"
   id="path6943"
   inkscape:connector-curvature="0" /><path
   d="m 6177.84,3101.11 v -20.98"
   style="fill:none;stroke:#000000;stroke-width:2.83465004;stroke-linecap:butt;stroke-linejoin:miter;stroke-miterlimit:2.5;stroke-dasharray:none;stroke-opacity:1"
   id="path6945"
   inkscape:connector-curvature="0" /><path
   d="m 6467.54,3101.11 v -20.98"
   style="fill:none;stroke:#000000;stroke-width:2.83465004;stroke-linecap:butt;stroke-linejoin:miter;stroke-miterlimit:2.5;stroke-dasharray:none;stroke-opacity:1"
   id="path6947"
   inkscape:connector-curvature="0" /><path
   d="M 1573.23,997.797 V 3101.11"
   style="fill:none;stroke:#000000;stroke-width:8.50395012;stroke-linecap:butt;stroke-linejoin:miter;stroke-miterlimit:2.5;stroke-dasharray:none;stroke-opacity:1"
   id="path6949"
   inkscape:connector-curvature="0" /><path
   d="m 1573.23,1150.02 h 103.18"
   style="fill:none;stroke:#000000;stroke-width:8.50395012;stroke-linecap:butt;stroke-linejoin:miter;stroke-miterlimit:2.5;stroke-dasharray:none;stroke-opacity:1"
   id="path6951"
   inkscape:connector-curvature="0" /><g
   id="g6953"
   transform="scale(10)"><text
   transform="matrix(1,0,0,-1,107.771,105.024)"
   style="font-variant:normal;font-weight:normal;font-size:30px;font-family:Helvetica;-inkscape-font-specification:Helvetica;writing-mode:lr-tb;fill:#000000;fill-opacity:1;fill-rule:nonzero;stroke:none"
   id="text6957"><tspan
     x="0 16.68 25.02"
     y="0"
     sodipodi:role="line"
     id="tspan6955">0.6</tspan></text>

</g><path
   d="m 1573.23,1529.58 h 103.18"
   style="fill:none;stroke:#000000;stroke-width:8.50395012;stroke-linecap:butt;stroke-linejoin:miter;stroke-miterlimit:2.5;stroke-dasharray:none;stroke-opacity:1"
   id="path6959"
   inkscape:connector-curvature="0" /><g
   id="g6961"
   transform="scale(10)"><text
   transform="matrix(1,0,0,-1,107.771,142.98)"
   style="font-variant:normal;font-weight:normal;font-size:30px;font-family:Helvetica;-inkscape-font-specification:Helvetica;writing-mode:lr-tb;fill:#000000;fill-opacity:1;fill-rule:nonzero;stroke:none"
   id="text6965"><tspan
     x="0 16.68 25.02"
     y="0"
     sodipodi:role="line"
     id="tspan6963">0.8</tspan></text>

</g><path
   d="m 1573.23,1909.14 h 103.18"
   style="fill:none;stroke:#000000;stroke-width:8.50395012;stroke-linecap:butt;stroke-linejoin:miter;stroke-miterlimit:2.5;stroke-dasharray:none;stroke-opacity:1"
   id="path6967"
   inkscape:connector-curvature="0" /><g
   id="g6969"
   transform="scale(10)"><text
   transform="matrix(1,0,0,-1,107.771,180.936)"
   style="font-variant:normal;font-weight:normal;font-size:30px;font-family:Helvetica;-inkscape-font-specification:Helvetica;writing-mode:lr-tb;fill:#000000;fill-opacity:1;fill-rule:nonzero;stroke:none"
   id="text6973"><tspan
     x="0 16.68 25.02"
     y="0"
     sodipodi:role="line"
     id="tspan6971">1.0</tspan></text>

</g><path
   d="m 1573.23,2288.98 h 103.18"
   style="fill:none;stroke:#000000;stroke-width:8.50395012;stroke-linecap:butt;stroke-linejoin:miter;stroke-miterlimit:2.5;stroke-dasharray:none;stroke-opacity:1"
   id="path6975"
   inkscape:connector-curvature="0" /><g
   id="g6977"
   transform="scale(10)"><text
   transform="matrix(1,0,0,-1,107.771,218.92)"
   style="font-variant:normal;font-weight:normal;font-size:30px;font-family:Helvetica;-inkscape-font-specification:Helvetica;writing-mode:lr-tb;fill:#000000;fill-opacity:1;fill-rule:nonzero;stroke:none"
   id="text6981"><tspan
     x="0 16.68 25.02"
     y="0"
     sodipodi:role="line"
     id="tspan6979">1.2</tspan></text>

</g><path
   d="m 1573.23,2668.54 h 103.18"
   style="fill:none;stroke:#000000;stroke-width:8.50395012;stroke-linecap:butt;stroke-linejoin:miter;stroke-miterlimit:2.5;stroke-dasharray:none;stroke-opacity:1"
   id="path6983"
   inkscape:connector-curvature="0" /><g
   id="g6985"
   transform="scale(10)"><text
   transform="matrix(1,0,0,-1,107.771,256.876)"
   style="font-variant:normal;font-weight:normal;font-size:30px;font-family:Helvetica;-inkscape-font-specification:Helvetica;writing-mode:lr-tb;fill:#000000;fill-opacity:1;fill-rule:nonzero;stroke:none"
   id="text6989"><tspan
     x="0 16.68 25.02"
     y="0"
     sodipodi:role="line"
     id="tspan6987">1.4</tspan></text>

</g><path
   d="m 1573.23,3048.1 h 103.18"
   style="fill:none;stroke:#000000;stroke-width:8.50395012;stroke-linecap:butt;stroke-linejoin:miter;stroke-miterlimit:2.5;stroke-dasharray:none;stroke-opacity:1"
   id="path6991"
   inkscape:connector-curvature="0" /><g
   id="g6993"
   transform="scale(10)"><text
   transform="matrix(1,0,0,-1,107.771,292.649)"
   style="font-variant:normal;font-weight:normal;font-size:30px;font-family:Helvetica;-inkscape-font-specification:Helvetica;writing-mode:lr-tb;fill:#000000;fill-opacity:1;fill-rule:nonzero;stroke:none"
   id="text6997"><tspan
     x="0 16.68 25.02"
     y="0"
     sodipodi:role="line"
     id="tspan6995">1.6</tspan></text>

</g><path
   d="m 1573.23,1055.06 h 51.59"
   style="fill:none;stroke:#000000;stroke-width:8.50395012;stroke-linecap:butt;stroke-linejoin:miter;stroke-miterlimit:2.5;stroke-dasharray:none;stroke-opacity:1"
   id="path6999"
   inkscape:connector-curvature="0" /><path
   d="m 1573.23,1244.98 h 51.59"
   style="fill:none;stroke:#000000;stroke-width:8.50395012;stroke-linecap:butt;stroke-linejoin:miter;stroke-miterlimit:2.5;stroke-dasharray:none;stroke-opacity:1"
   id="path7001"
   inkscape:connector-curvature="0" /><path
   d="m 1573.23,1339.94 h 51.59"
   style="fill:none;stroke:#000000;stroke-width:8.50395012;stroke-linecap:butt;stroke-linejoin:miter;stroke-miterlimit:2.5;stroke-dasharray:none;stroke-opacity:1"
   id="path7003"
   inkscape:connector-curvature="0" /><path
   d="m 1573.23,1434.62 h 51.59"
   style="fill:none;stroke:#000000;stroke-width:8.50395012;stroke-linecap:butt;stroke-linejoin:miter;stroke-miterlimit:2.5;stroke-dasharray:none;stroke-opacity:1"
   id="path7005"
   inkscape:connector-curvature="0" /><path
   d="m 1573.23,1624.54 h 51.59"
   style="fill:none;stroke:#000000;stroke-width:8.50395012;stroke-linecap:butt;stroke-linejoin:miter;stroke-miterlimit:2.5;stroke-dasharray:none;stroke-opacity:1"
   id="path7007"
   inkscape:connector-curvature="0" /><path
   d="m 1573.23,1719.5 h 51.59"
   style="fill:none;stroke:#000000;stroke-width:8.50395012;stroke-linecap:butt;stroke-linejoin:miter;stroke-miterlimit:2.5;stroke-dasharray:none;stroke-opacity:1"
   id="path7009"
   inkscape:connector-curvature="0" /><path
   d="m 1573.23,1814.46 h 51.59"
   style="fill:none;stroke:#000000;stroke-width:8.50395012;stroke-linecap:butt;stroke-linejoin:miter;stroke-miterlimit:2.5;stroke-dasharray:none;stroke-opacity:1"
   id="path7011"
   inkscape:connector-curvature="0" /><path
   d="m 1573.23,2004.1 h 51.59"
   style="fill:none;stroke:#000000;stroke-width:8.50395012;stroke-linecap:butt;stroke-linejoin:miter;stroke-miterlimit:2.5;stroke-dasharray:none;stroke-opacity:1"
   id="path7013"
   inkscape:connector-curvature="0" /><path
   d="m 1573.23,2099.06 h 51.59"
   style="fill:none;stroke:#000000;stroke-width:8.50395012;stroke-linecap:butt;stroke-linejoin:miter;stroke-miterlimit:2.5;stroke-dasharray:none;stroke-opacity:1"
   id="path7015"
   inkscape:connector-curvature="0" /><path
   d="m 1573.23,2194.02 h 51.59"
   style="fill:none;stroke:#000000;stroke-width:8.50395012;stroke-linecap:butt;stroke-linejoin:miter;stroke-miterlimit:2.5;stroke-dasharray:none;stroke-opacity:1"
   id="path7017"
   inkscape:connector-curvature="0" /><path
   d="m 1573.23,2383.94 h 51.59"
   style="fill:none;stroke:#000000;stroke-width:8.50395012;stroke-linecap:butt;stroke-linejoin:miter;stroke-miterlimit:2.5;stroke-dasharray:none;stroke-opacity:1"
   id="path7019"
   inkscape:connector-curvature="0" /><path
   d="m 1573.23,2478.62 h 51.59"
   style="fill:none;stroke:#000000;stroke-width:8.50395012;stroke-linecap:butt;stroke-linejoin:miter;stroke-miterlimit:2.5;stroke-dasharray:none;stroke-opacity:1"
   id="path7021"
   inkscape:connector-curvature="0" /><path
   d="m 1573.23,2573.58 h 51.59"
   style="fill:none;stroke:#000000;stroke-width:8.50395012;stroke-linecap:butt;stroke-linejoin:miter;stroke-miterlimit:2.5;stroke-dasharray:none;stroke-opacity:1"
   id="path7023"
   inkscape:connector-curvature="0" /><path
   d="m 1573.23,2763.5 h 51.59"
   style="fill:none;stroke:#000000;stroke-width:8.50395012;stroke-linecap:butt;stroke-linejoin:miter;stroke-miterlimit:2.5;stroke-dasharray:none;stroke-opacity:1"
   id="path7025"
   inkscape:connector-curvature="0" /><path
   d="m 1573.23,2858.46 h 51.59"
   style="fill:none;stroke:#000000;stroke-width:8.50395012;stroke-linecap:butt;stroke-linejoin:miter;stroke-miterlimit:2.5;stroke-dasharray:none;stroke-opacity:1"
   id="path7027"
   inkscape:connector-curvature="0" /><path
   d="m 1573.23,2953.14 h 51.59"
   style="fill:none;stroke:#000000;stroke-width:8.50395012;stroke-linecap:butt;stroke-linejoin:miter;stroke-miterlimit:2.5;stroke-dasharray:none;stroke-opacity:1"
   id="path7029"
   inkscape:connector-curvature="0" /><g
   id="g7031"
   transform="scale(10)"><text
   transform="matrix(0,1,1,0,84.1609,152.43)"
   style="font-variant:normal;font-weight:normal;font-size:30px;font-family:Helvetica;-inkscape-font-specification:Helvetica;writing-mode:lr-tb;fill:#000000;fill-opacity:1;fill-rule:nonzero;stroke:none"
   id="text7035"><tspan
     x="0 18.33 35.009998 43.349998 51.689999 76.68 96.690002"
     y="0"
     sodipodi:role="line"
     id="tspan7033">Te [MK]</tspan></text>

</g><path
   d="M 6728.04,997.797 V 3101.11"
   style="fill:none;stroke:#000000;stroke-width:8.50395012;stroke-linecap:butt;stroke-linejoin:miter;stroke-miterlimit:2.5;stroke-dasharray:none;stroke-opacity:1"
   id="path7037"
   inkscape:connector-curvature="0" /><path
   d="M 6728.04,1150.02 H 6624.86"
   style="fill:none;stroke:#000000;stroke-width:8.50395012;stroke-linecap:butt;stroke-linejoin:miter;stroke-miterlimit:2.5;stroke-dasharray:none;stroke-opacity:1"
   id="path7039"
   inkscape:connector-curvature="0" /><path
   d="M 6728.04,1529.58 H 6624.86"
   style="fill:none;stroke:#000000;stroke-width:8.50395012;stroke-linecap:butt;stroke-linejoin:miter;stroke-miterlimit:2.5;stroke-dasharray:none;stroke-opacity:1"
   id="path7041"
   inkscape:connector-curvature="0" /><path
   d="M 6728.04,1909.14 H 6624.86"
   style="fill:none;stroke:#000000;stroke-width:8.50395012;stroke-linecap:butt;stroke-linejoin:miter;stroke-miterlimit:2.5;stroke-dasharray:none;stroke-opacity:1"
   id="path7043"
   inkscape:connector-curvature="0" /><path
   d="M 6728.04,2288.98 H 6624.86"
   style="fill:none;stroke:#000000;stroke-width:8.50395012;stroke-linecap:butt;stroke-linejoin:miter;stroke-miterlimit:2.5;stroke-dasharray:none;stroke-opacity:1"
   id="path7045"
   inkscape:connector-curvature="0" /><path
   d="M 6728.04,2668.54 H 6624.86"
   style="fill:none;stroke:#000000;stroke-width:8.50395012;stroke-linecap:butt;stroke-linejoin:miter;stroke-miterlimit:2.5;stroke-dasharray:none;stroke-opacity:1"
   id="path7047"
   inkscape:connector-curvature="0" /><path
   d="M 6728.04,3048.1 H 6624.86"
   style="fill:none;stroke:#000000;stroke-width:8.50395012;stroke-linecap:butt;stroke-linejoin:miter;stroke-miterlimit:2.5;stroke-dasharray:none;stroke-opacity:1"
   id="path7049"
   inkscape:connector-curvature="0" /><path
   d="m 6728.04,1055.06 h -51.59"
   style="fill:none;stroke:#000000;stroke-width:8.50395012;stroke-linecap:butt;stroke-linejoin:miter;stroke-miterlimit:2.5;stroke-dasharray:none;stroke-opacity:1"
   id="path7051"
   inkscape:connector-curvature="0" /><path
   d="m 6728.04,1244.98 h -51.59"
   style="fill:none;stroke:#000000;stroke-width:8.50395012;stroke-linecap:butt;stroke-linejoin:miter;stroke-miterlimit:2.5;stroke-dasharray:none;stroke-opacity:1"
   id="path7053"
   inkscape:connector-curvature="0" /><path
   d="m 6728.04,1339.94 h -51.59"
   style="fill:none;stroke:#000000;stroke-width:8.50395012;stroke-linecap:butt;stroke-linejoin:miter;stroke-miterlimit:2.5;stroke-dasharray:none;stroke-opacity:1"
   id="path7055"
   inkscape:connector-curvature="0" /><path
   d="m 6728.04,1434.62 h -51.59"
   style="fill:none;stroke:#000000;stroke-width:8.50395012;stroke-linecap:butt;stroke-linejoin:miter;stroke-miterlimit:2.5;stroke-dasharray:none;stroke-opacity:1"
   id="path7057"
   inkscape:connector-curvature="0" /><path
   d="m 6728.04,1624.54 h -51.59"
   style="fill:none;stroke:#000000;stroke-width:8.50395012;stroke-linecap:butt;stroke-linejoin:miter;stroke-miterlimit:2.5;stroke-dasharray:none;stroke-opacity:1"
   id="path7059"
   inkscape:connector-curvature="0" /><path
   d="m 6728.04,1719.5 h -51.59"
   style="fill:none;stroke:#000000;stroke-width:8.50395012;stroke-linecap:butt;stroke-linejoin:miter;stroke-miterlimit:2.5;stroke-dasharray:none;stroke-opacity:1"
   id="path7061"
   inkscape:connector-curvature="0" /><path
   d="m 6728.04,1814.46 h -51.59"
   style="fill:none;stroke:#000000;stroke-width:8.50395012;stroke-linecap:butt;stroke-linejoin:miter;stroke-miterlimit:2.5;stroke-dasharray:none;stroke-opacity:1"
   id="path7063"
   inkscape:connector-curvature="0" /><path
   d="m 6728.04,2004.1 h -51.59"
   style="fill:none;stroke:#000000;stroke-width:8.50395012;stroke-linecap:butt;stroke-linejoin:miter;stroke-miterlimit:2.5;stroke-dasharray:none;stroke-opacity:1"
   id="path7065"
   inkscape:connector-curvature="0" /><path
   d="m 6728.04,2099.06 h -51.59"
   style="fill:none;stroke:#000000;stroke-width:8.50395012;stroke-linecap:butt;stroke-linejoin:miter;stroke-miterlimit:2.5;stroke-dasharray:none;stroke-opacity:1"
   id="path7067"
   inkscape:connector-curvature="0" /><path
   d="m 6728.04,2194.02 h -51.59"
   style="fill:none;stroke:#000000;stroke-width:8.50395012;stroke-linecap:butt;stroke-linejoin:miter;stroke-miterlimit:2.5;stroke-dasharray:none;stroke-opacity:1"
   id="path7069"
   inkscape:connector-curvature="0" /><path
   d="m 6728.04,2383.94 h -51.59"
   style="fill:none;stroke:#000000;stroke-width:8.50395012;stroke-linecap:butt;stroke-linejoin:miter;stroke-miterlimit:2.5;stroke-dasharray:none;stroke-opacity:1"
   id="path7071"
   inkscape:connector-curvature="0" /><path
   d="m 6728.04,2478.62 h -51.59"
   style="fill:none;stroke:#000000;stroke-width:8.50395012;stroke-linecap:butt;stroke-linejoin:miter;stroke-miterlimit:2.5;stroke-dasharray:none;stroke-opacity:1"
   id="path7073"
   inkscape:connector-curvature="0" /><path
   d="m 6728.04,2573.58 h -51.59"
   style="fill:none;stroke:#000000;stroke-width:8.50395012;stroke-linecap:butt;stroke-linejoin:miter;stroke-miterlimit:2.5;stroke-dasharray:none;stroke-opacity:1"
   id="path7075"
   inkscape:connector-curvature="0" /><path
   d="m 6728.04,2763.5 h -51.59"
   style="fill:none;stroke:#000000;stroke-width:8.50395012;stroke-linecap:butt;stroke-linejoin:miter;stroke-miterlimit:2.5;stroke-dasharray:none;stroke-opacity:1"
   id="path7077"
   inkscape:connector-curvature="0" /><path
   d="m 6728.04,2858.46 h -51.59"
   style="fill:none;stroke:#000000;stroke-width:8.50395012;stroke-linecap:butt;stroke-linejoin:miter;stroke-miterlimit:2.5;stroke-dasharray:none;stroke-opacity:1"
   id="path7079"
   inkscape:connector-curvature="0" /><path
   d="m 6728.04,2953.14 h -51.59"
   style="fill:none;stroke:#000000;stroke-width:8.50395012;stroke-linecap:butt;stroke-linejoin:miter;stroke-miterlimit:2.5;stroke-dasharray:none;stroke-opacity:1"
   id="path7081"
   inkscape:connector-curvature="0" /><path
   d="m 1573.23,1004.88 h 28.91 v 66.05 h 58.11 v 466.02 h 28.92 28.91 v -5.39 h 28.92 28.91 v -519.31 h 28.91 29.2 v 54.43 h 28.91 28.91 v 601.8 h 28.92 28.91 V 1544.6 h 28.92 29.19 v 487.56 h 28.92 28.91 v -361.42 h 28.91 28.92 V 1222.3 h 28.91 29.2 v 951.59 h 28.91 28.92 v 101.2 h 28.91 28.91 v 623.34 h 28.91 29.2 v -144.29 h 28.91 28.92 v 101.2 h 28.91 28.91 v 72.86 h 28.92 29.19 v -149.39 h 28.92 28.91 v -8.51 h 28.92 28.91 v -89 h 28.91 28.91 v 153.07 h 29.2 28.91 v 20.41 h 28.92 28.91 v 59.24 h 28.92 28.91 v -18.99 h 29.2 28.91 v -39.12 h 28.91 28.92 v 1.98 h 28.91 28.91 v -46.2 h 29.2 28.92 v -56.41 h 28.91 28.91 v -70.87 h 28.91 28.92 v -25.79 h 29.19 28.92 V 2611 h 28.91 28.92 v -30.05 h 28.91 28.91 v 42.8 h 29.2 28.91 v 33.17 h 28.92 28.91 v 9.35 h 28.91 28.92 v -14.17 h 29.19 28.91 v 39.97 h 28.92 28.91 v 22.11 h 28.92 28.91 v 98.64 h 29.2 28.91 v 8.79 h 28.91 28.92 v 84.19 h 28.91 28.91 v 108 h 28.92 29.2 v -18.71 h 28.91 28.91 v -11.05 h 28.91 28.92 v 14.74 h 28.91 29.2 v -80.79 h 28.91 28.92 v -70.3 h 28.91 28.91 v -31.75 h 28.91 29.2 v -15.87 h 28.92 28.91 v 1.7 h 28.91 28.92 V 2827 h 28.91 29.19 v -5.11 h 28.92 28.91 v -22.39 h 28.92 28.91 v -8.5 h 28.92 29.19 v -24.66 h 28.91 28.92 v -58.12 h 28.91 28.91 v 0.57 h 28.92 29.2 v 20.41 h 28.91 28.91 v 93.83 h 28.91 28.92 v -7.94 h 28.91 29.2 v -15.87 h 28.91 28.92 v 34.3 h 28.91 28.91 v 9.63 h 28.91 28.92 v 139.75 h 29.2 28.91 v 105.73 h 28.91 28.92 v 1.99 h 28.91 28.91 v 10.49 h 29.2 28.91 v -67.75 h 28.92 28.91 v -86.17 h 28.92 28.91 v 13.6 h 29.19 28.92 v 50.46 h 28.91 28.91 v 34.58 h 28.92 28.91 v -19.56 h 29.2 28.91 v 2.84 h 28.91 28.92 v -114.52 h 28.91 28.92 v -278.08 h 29.19 28.92 v -14.46 h 28.91 28.91 v 102.61 h 28.91 28.92 v -555.87 h 29.2 28.91 v -576 h 28.91 28.92 v -577.7 h 28.91 28.91 v 13.32 h 29.2 28.91 v -22.96 h 28.92 28.91 v -7.368 h 28.91 28.92 v -0.285 h 28.91 29.2 v 679.753 h 28.91 28.91 v 363.68 h 28.92 28.91 V 1015.09 h 28.92 29.19 v 1010.55 h 28.91 28.92 v 129.83 h 28.91"
   style="fill:none;stroke:#ff0000;stroke-width:22.67720032;stroke-linecap:butt;stroke-linejoin:miter;stroke-miterlimit:2.5;stroke-dasharray:none;stroke-opacity:1"
   id="path7083"
   inkscape:connector-curvature="0" /><path
   d="m 1573.23,1797.45 h 28.91 v -28.06 h 58.11 v -13.61 h 28.92 28.91 v 17.58 h 28.92 28.91 v 3.68 h 28.91 29.2 v 16.73 h 28.91 28.91 v 21.26 h 28.92 28.91 v 18.7 h 28.92 29.19 v 16.73 h 28.92 28.91 v 14.46 h 28.91 28.92 v 17.29 h 28.91 29.2 v 23.81 h 28.91 28.92 v 31.18 h 28.91 28.91 v 60.09 h 28.91 29.2 v 94.96 h 28.91 28.92 v 132.1 h 28.91 28.91 v 127.56 h 28.92 29.19 v 132.66 h 28.92 28.91 v 84.76 h 28.92 28.91 v 18.71 h 28.91 28.91 v -26.08 h 29.2 28.91 v -9.64 h 28.92 28.91 v -15.02 h 28.92 28.91 v -12.19 h 29.2 28.91 v -59.53 h 28.91 28.92 v -80.79 h 28.91 28.91 v -82.49 h 29.2 28.92 v -54.99 h 28.91 28.91 v -60.94 h 28.91 28.92 v -38.84 h 29.19 28.92 v -13.6 h 28.91 28.92 v -31.47 h 28.91 28.91 v 0.85 h 29.2 28.91 v 44.5 h 28.92 28.91 v 18.15 h 28.91 28.92 v 5.1 h 29.19 28.91 v 9.35 h 28.92 28.91 v 42.52 h 28.92 28.91 V 2215 h 29.2 28.91 v -30.05 h 28.91 28.92 v -17.86 h 28.91 28.91 v 37.13 h 28.92 29.2 v 60.1 h 28.91 28.91 v 40.54 h 28.91 28.92 v 40.81 h 28.91 29.2 v 54.43 h 28.91 28.92 v 25.79 h 28.91 28.91 v 17.86 h 28.91 29.2 v -18.14 h 28.92 28.91 v -29.76 h 28.91 28.92 v -11.34 h 28.91 29.19 v 5.95 h 28.92 28.91 v -3.69 h 28.92 28.91 v -9.91 h 28.92 29.19 v -5.39 h 28.91 28.92 v 27.21 h 28.91 28.91 v 6.24 h 28.92 29.2 v 43.94 h 28.91 28.91 v 53 h 28.91 28.92 v 46.49 h 28.91 29.2 v 36.57 h 28.91 28.92 v 12.75 h 28.91 28.91 v 14.74 h 28.91 28.92 v 0.29 h 29.2 28.91 v 21.26 h 28.91 28.92 v 22.96 h 28.91 28.91 v 23.53 h 29.2 28.91 v 10.2 h 28.92 28.91 v -19.84 h 28.92 28.91 v -108.57 h 29.19 28.92 v -171.21 h 28.91 28.91 V 2160 h 28.92 28.91 v -246.61 h 29.2 28.91 V 1729.7 h 28.91 28.92 v -83.62 h 28.91 28.92 v -29.76 h 29.19 28.92 v -21.55 h 28.91 28.91 v -6.52 h 28.91 28.92 v 3.41 h 29.2 28.91 v 20.41 h 28.91 28.92 v 21.54 h 28.91 28.91 v 12.19 h 29.2 28.91 v -6.52 h 28.92 28.91 v -1.14 h 28.91 28.92 v 5.96 h 28.91 29.2 v 18.7 h 28.91 28.91 v 43.38 h 28.92 28.91 v 39.68 h 28.92 29.19 v 10.77 h 28.91 28.92 v -4.25 h 28.91"
   style="fill:none;stroke:#ff0000;stroke-width:22.67720032;stroke-linecap:butt;stroke-linejoin:miter;stroke-miterlimit:2.5;stroke-dasharray:56.693, 56.693;stroke-dashoffset:0;stroke-opacity:1"
   id="path7085"
   inkscape:connector-curvature="0" /><path
   d="m 4411.28,1523.63 h 260.79"
   style="fill:none;stroke:#ff0000;stroke-width:22.67720032;stroke-linecap:butt;stroke-linejoin:miter;stroke-miterlimit:2.5;stroke-dasharray:none;stroke-opacity:1"
   id="path7087"
   inkscape:connector-curvature="0" /><path
   d="m 4411.28,1166.18 h 260.79"
   style="fill:none;stroke:#ff0000;stroke-width:22.67720032;stroke-linecap:butt;stroke-linejoin:miter;stroke-miterlimit:2.5;stroke-dasharray:56.693, 56.693;stroke-dashoffset:0;stroke-opacity:1"
   id="path7089"
   inkscape:connector-curvature="0" /><g
   id="g7091"
   transform="scale(10)"><text
   transform="matrix(1,0,0,-1,468.001,144)"
   style="font-variant:normal;font-weight:normal;font-size:24px;font-family:Helvetica;-inkscape-font-specification:Helvetica;writing-mode:lr-tb;fill:#ff0000;fill-opacity:1;fill-rule:nonzero;stroke:none"
   id="text7097"><tspan
     x="0 17.327999 33.335999 53.327999"
     y="0"
     sodipodi:role="line"
     id="tspan7093">DEMT</tspan><tspan
     x="0 16.007999 38.664001 54.672001 68.015999"
     y="36"
     sodipodi:role="line"
     id="tspan7095">AWSoM</tspan></text>

</g><path
   d="M 5772.48,997.797 V 3101.11"
   style="fill:none;stroke:#000000;stroke-width:22.67720032;stroke-linecap:butt;stroke-linejoin:miter;stroke-miterlimit:2.5;stroke-dasharray:none;stroke-opacity:1"
   id="path7099"
   inkscape:connector-curvature="0" /><path
   d="M 2355.31,997.797 V 3101.11"
   style="fill:none;stroke:#000000;stroke-width:22.67720032;stroke-linecap:butt;stroke-linejoin:miter;stroke-miterlimit:2.5;stroke-dasharray:none;stroke-opacity:1"
   id="path7101"
   inkscape:connector-curvature="0" /><text
   xml:space="preserve"
   style="font-style:normal;font-weight:normal;font-size:320.55984497px;line-height:125%;font-family:sans-serif;letter-spacing:0px;word-spacing:0px;fill:#000000;fill-opacity:1;stroke:none;stroke-width:8.01399708px;stroke-linecap:butt;stroke-linejoin:miter;stroke-opacity:1"
   x="1576.2544"
   y="-3014.9663"
   id="text4063"
   transform="scale(0.94891317,-1.0538372)"><tspan
     sodipodi:role="line"
     id="tspan4061"
     x="1576.2544"
     y="-3014.9663"
     style="stroke-width:8.01399708px">Lat. Profile CR-2208 at 1.105 Rsun</tspan></text>

</g></g></svg>